<svg width="16" height="16" viewBox="0 0 16 16" fill="none" xmlns="http://www.w3.org/2000/svg">
<g clip-path="url(#clip0_40_278)">
<path d="M3.79998 16C4.86081 15.9999 5.87817 15.5785 6.6283 14.8284C6.99973 14.457 7.29439 14.0161 7.4954 13.5308C7.69642 13.0455 7.79987 12.5254 7.79986 12.0001V16H3.79998ZM7.79986 8.39996H10.9995V12.8001C10.9995 13.6487 10.6624 14.4625 10.0624 15.0625C9.76526 15.3597 9.41253 15.5954 9.02433 15.7562C8.63613 15.917 8.22004 15.9998 7.79986 15.9998V8.39996Z" fill="#02D365"/>
<path d="M4.59995 14.3998C5.48359 14.3998 6.19991 13.6835 6.19991 12.7998C6.19991 11.9162 5.48359 11.1999 4.59995 11.1999C3.71632 11.1999 3 11.9162 3 12.7998C3 13.6835 3.71632 14.3998 4.59995 14.3998Z" fill="#02D365"/>
<path fill-rule="evenodd" clip-rule="evenodd" d="M11.3998 8.39999H7.79987V11.9999C7.79984 11.5271 7.89293 11.059 8.07383 10.6222C8.25474 10.1855 8.5199 9.7886 8.85419 9.45431C9.18848 9.12002 9.58534 8.85486 10.0221 8.67396C10.4589 8.49306 10.927 8.39996 11.3998 8.39999ZM14.9999 4.79987H11.3998C10.927 4.79984 10.4589 4.89293 10.0221 5.07383C9.58534 5.25473 9.18848 5.5199 8.85419 5.85418C8.5199 6.18847 8.25474 6.58533 8.07383 7.0221C7.89293 7.45888 7.79984 7.92701 7.79987 8.39976H11.4C11.8727 8.39979 12.3409 8.3067 12.7777 8.1258C13.2144 7.94489 13.6113 7.67973 13.9456 7.34544C14.2799 7.01115 14.545 6.6143 14.7259 6.17752C14.9068 5.74075 14.9999 5.27262 14.9999 4.79987Z" fill="white"/>
<path fill-rule="evenodd" clip-rule="evenodd" d="M6.99989 3.99989V7.99977C6.99989 6.93894 7.42131 5.92155 8.17143 5.17143C8.92156 4.4213 9.93895 3.99989 10.9998 3.99989C11.5251 3.99992 12.0452 3.89648 12.5305 3.69548C13.0159 3.49448 13.4568 3.19985 13.8283 2.82843C14.1997 2.457 14.4944 2.01605 14.6954 1.53074C14.8964 1.04544 14.9999 0.525292 14.9999 0H10.9998C9.93895 0 8.92156 0.421417 8.17143 1.17154C7.42131 1.92167 6.99989 2.93905 6.99989 3.99989Z" fill="white"/>
</g>
<defs>
<clipPath id="clip0_40_278">
<rect width="16" height="16" fill="white"/>
</clipPath>
</defs>
</svg>
